<svg xmlns="http://www.w3.org/2000/svg" width="50" height="50" viewBox="0 0 50 50" fill="currentColor"><path d="M35.195 34.926h1.008c.207 0 .392.128.464.32l2.305 6.225 1.95-5.053h-1.886c-.232 0-.371-.131-.371-.375v-.758c0-.214.122-.359.364-.359h3.477c.348 0 .586.345.459.665l-2.824 7.101a.49.49 0 0 1-.459.308h-1.357a.49.49 0 0 1-.459-.309l-2.888-7.232c-.127-.319.001-.533.217-.533m-21 8.074h1.008a.495.495 0 0 0 .464-.32l2.305-6.225 1.95 5.053h-1.886c-.232 0-.371.131-.371.375v.758c0 .214.122.359.364.359h3.477a.487.487 0 0 0 .459-.665l-2.824-7.101a.49.49 0 0 0-.459-.309h-1.357a.49.49 0 0 0-.459.309l-2.904 7.272c-.127.32.017.494.233.494m6.555-7.574v.444c0 .294.127.504.445.504h2.395v6.132c0 .273.221.495.494.495h.808a.495.495 0 0 0 .494-.495v-6.139h2.424c.328 0 .44-.194.44-.449v-.485c0-.255-.143-.432-.459-.432h-6.615c-.315-.001-.426.172-.426.425M7 35.411c0-.268.218-.485.487-.485h2.084c.116.116 4.467-.541 4.428 3.921.101 4.525-4.66 4.146-4.66 4.146H7.487A.487.487 0 0 1 7 42.507zm2.222.907h-.521v5.313h.427c.979.015 3.192-.193 3.1-2.846-.032-2.405-2.028-2.498-3.006-2.467M42 7H8a1 1 0 0 0-1 1v24a1 1 0 0 0 1 1h34a1 1 0 0 0 1-1V8a1 1 0 0 0-1-1m-7.965 34.597h-3.41l-.003-2.047h3.026c.333 0 .446-.198.446-.459v-.495c0-.26-.145-.442-.465-.442H30.62l-.003-1.776h3.27c.333 0 .446-.196.446-.453v-.489c0-.257-.145-.436-.465-.436H29.5a.5.5 0 0 0-.5.5v7a.5.5 0 0 0 .5.5h4.554c.333 0 .446-.199.446-.461v-.498c0-.262-.145-.444-.465-.444"/></svg>