<svg id="Layer_2" height="512" viewBox="0 0 24 24" width="512" xmlns="http://www.w3.org/2000/svg" xmlns:xlink="http://www.w3.org/1999/xlink" data-name="Layer 2"><linearGradient id="linear-gradient" gradientUnits="userSpaceOnUse" x1="22.42" x2="4.54" y1=".44" y2="20.27"><stop offset="0" stop-color="#c180b7"/><stop offset="1" stop-color="#8659a5"/></linearGradient><linearGradient id="linear-gradient-2" x1="22.5" x2="4.62" xlink:href="#linear-gradient" y1=".52" y2="20.35"/><path d="m12 1a11 11 0 1 0 11 11 11 11 0 0 0 -11-11zm0 20a9 9 0 1 1 9-9 9 9 0 0 1 -9 9z" fill="url(#linear-gradient)"/><path d="m13 11.59v-5.59a1 1 0 0 0 -2 0v6a1 1 0 0 0 .29.71l3 3a1 1 0 0 0 1.42 0 1 1 0 0 0 0-1.42z" fill="url(#linear-gradient-2)"/></svg>